<svg xmlns="http://www.w3.org/2000/svg" viewBox="0 0 200 66"><defs><style>.cls-1{fill:#fed500;}</style></defs><title>alliedstrand_yellow_short_center_logo</title><g id="Light_Backgrounds" data-name="Light Backgrounds"><rect class="cls-1" width="200" height="66"/></g><g id="Dark_Wordmarks" data-name="Dark Wordmarks"><path d="M27.93,37.66H19.71l-1.56,4.69h-5L21.63,19.6H26l8.51,22.75h-5ZM21,33.87h5.68L23.8,25.35Z"/><path d="M41.09,42.35H36.55v-24h4.54Z"/><path d="M49.57,42.35H45v-24h4.53Z"/><path d="M53.26,21.07a2.19,2.19,0,0,1,.68-1.67,2.91,2.91,0,0,1,3.69,0,2.38,2.38,0,0,1,0,3.36,2.53,2.53,0,0,1-1.83.65A2.57,2.57,0,0,1,54,22.76,2.23,2.23,0,0,1,53.26,21.07Zm4.79,21.28H53.52V25.45h4.53Z"/><path d="M69.55,42.66a8.31,8.31,0,0,1-6-2.28,8.09,8.09,0,0,1-2.34-6.08v-.43a10.19,10.19,0,0,1,1-4.56,7.11,7.11,0,0,1,2.79-3.09,7.84,7.84,0,0,1,4.11-1.09,7,7,0,0,1,5.47,2.19,8.93,8.93,0,0,1,2,6.2v1.85H65.74A4.21,4.21,0,0,0,67.06,38a4,4,0,0,0,2.79,1,4.88,4.88,0,0,0,4.08-1.89l2.22,2.49a6.85,6.85,0,0,1-2.75,2.24A9,9,0,0,1,69.55,42.66ZM69,28.77a2.84,2.84,0,0,0-2.18.91,4.75,4.75,0,0,0-1.07,2.61h6.28v-.36a3.35,3.35,0,0,0-.81-2.33A2.91,2.91,0,0,0,69,28.77Z"/><path d="M78.37,33.77a10.19,10.19,0,0,1,1.77-6.29A5.74,5.74,0,0,1,85,25.13,5.17,5.17,0,0,1,89.07,27V18.35H93.6v24H89.52l-.22-1.8A5.29,5.29,0,0,1,85,42.66a5.74,5.74,0,0,1-4.79-2.35A10.51,10.51,0,0,1,78.37,33.77Zm4.51.34a6.71,6.71,0,0,0,.83,3.65A2.7,2.7,0,0,0,86.12,39a3,3,0,0,0,2.95-1.77V30.57a3,3,0,0,0-2.92-1.77Q82.88,28.8,82.88,34.11Z"/><path d="M106.26,37.68a1.45,1.45,0,0,0-.82-1.3,9.28,9.28,0,0,0-2.64-.86q-6-1.26-6-5.12a4.67,4.67,0,0,1,1.87-3.76,7.55,7.55,0,0,1,4.88-1.51,8.11,8.11,0,0,1,5.15,1.52,4.76,4.76,0,0,1,1.93,3.94h-4.51a2.2,2.2,0,0,0-.63-1.61,2.66,2.66,0,0,0-1.95-.63,2.69,2.69,0,0,0-1.77.52,1.63,1.63,0,0,0-.62,1.31,1.38,1.38,0,0,0,.71,1.21,7.31,7.31,0,0,0,2.4.8,18.13,18.13,0,0,1,2.84.76c2.39.87,3.58,2.39,3.58,4.54a4.39,4.39,0,0,1-2,3.74,8.5,8.5,0,0,1-5.12,1.43,9,9,0,0,1-3.77-.75,6.35,6.35,0,0,1-2.59-2.08A4.79,4.79,0,0,1,96.24,37h4.28a2.36,2.36,0,0,0,.89,1.84,3.55,3.55,0,0,0,2.22.64,3.24,3.24,0,0,0,2-.49A1.52,1.52,0,0,0,106.26,37.68Z"/><path d="M119,21.29v4.16h2.89v3.31H119V37.2a2,2,0,0,0,.36,1.34,1.82,1.82,0,0,0,1.38.41,7.32,7.32,0,0,0,1.32-.11v3.42a9.25,9.25,0,0,1-2.73.4c-3.17,0-4.78-1.59-4.84-4.79V28.76H112V25.45h2.47V21.29Z"/><path d="M133.87,29.68a13.09,13.09,0,0,0-1.63-.13q-2.56,0-3.36,1.74V42.35h-4.51V25.45h4.26l.13,2a4.18,4.18,0,0,1,3.76-2.33,4.62,4.62,0,0,1,1.41.21Z"/><path d="M145.37,42.35a5.08,5.08,0,0,1-.46-1.51,5.47,5.47,0,0,1-4.26,1.82,6,6,0,0,1-4.12-1.43,4.63,4.63,0,0,1-1.63-3.63,4.77,4.77,0,0,1,2-4.12A9.83,9.83,0,0,1,142.65,32h2.08v-1a2.74,2.74,0,0,0-.61-1.87,2.35,2.35,0,0,0-1.89-.7,2.71,2.71,0,0,0-1.79.54,1.85,1.85,0,0,0-.65,1.5h-4.52a4.58,4.58,0,0,1,.91-2.72,6.05,6.05,0,0,1,2.56-2,9.45,9.45,0,0,1,3.72-.71,7.41,7.41,0,0,1,5,1.57,5.49,5.49,0,0,1,1.84,4.42v7.33a8.08,8.08,0,0,0,.67,3.64v.26Zm-3.74-3.14a4,4,0,0,0,1.85-.44,3,3,0,0,0,1.25-1.2V34.66H143c-2.26,0-3.46.79-3.61,2.35l0,.26a1.78,1.78,0,0,0,.6,1.39A2.27,2.27,0,0,0,141.63,39.21Z"/><path d="M156.88,25.45,157,27.4a5.91,5.91,0,0,1,4.86-2.27,4.91,4.91,0,0,1,4,1.58,7.34,7.34,0,0,1,1.35,4.72V42.35h-4.52V31.54a3,3,0,0,0-.62-2.09A2.82,2.82,0,0,0,160,28.8a3.11,3.11,0,0,0-2.86,1.63V42.35h-4.52V25.45Z"/><path d="M170,33.77a10.19,10.19,0,0,1,1.77-6.29,5.74,5.74,0,0,1,4.85-2.35A5.17,5.17,0,0,1,180.65,27V18.35h4.53v24H181.1l-.22-1.8a5.29,5.29,0,0,1-4.34,2.11,5.73,5.73,0,0,1-4.79-2.35A10.51,10.51,0,0,1,170,33.77Zm4.51.34a6.71,6.71,0,0,0,.83,3.65A2.7,2.7,0,0,0,177.7,39a3,3,0,0,0,3-1.77V30.57a3,3,0,0,0-2.92-1.77Q174.46,28.8,174.46,34.11Z"/></g></svg>