<svg xmlns="http://www.w3.org/2000/svg" viewBox="0 0 80 80"><defs><style>.cls-1,.cls-3{fill:none;stroke-miterlimit:10;stroke-width:2px;}.cls-1{stroke:#1d3458;}.cls-2{fill:#2d74da;}.cls-3{stroke:#2d74da;}</style></defs><title>code_icon</title><g id="Code"><g id="Window"><rect class="cls-1" x="5" y="19" width="70" height="52"/><rect class="cls-1" x="5" y="9" width="70" height="10"/></g><g id="Buttons"><path class="cls-2" d="M10,15.5a1.5,1.5,0,0,0,0-3,1.5,1.5,0,0,0,0,3Z"/><path class="cls-2" d="M15,15.5a1.5,1.5,0,0,0,0-3,1.5,1.5,0,0,0,0,3Z"/><path class="cls-2" d="M20,15.5a1.5,1.5,0,0,0,0-3,1.5,1.5,0,0,0,0,3Z"/></g><polyline class="cls-3" points="31.5 57.5 16.5 45 31.5 32.5"/><polyline class="cls-3" points="48.5 57.5 63.5 45 48.5 32.5"/><line class="cls-3" x1="44.5" y1="29" x2="35.5" y2="62"/></g></svg>