<svg id="Forum" xmlns="http://www.w3.org/2000/svg" viewBox="0 0 80 80"><defs><style>.cls-1,.cls-2{fill:none;stroke-miterlimit:10;stroke-width:2px;}.cls-1{stroke:#1d3458;}.cls-2{stroke:#2d74da;}</style></defs><title>forum_icon</title><polygon class="cls-1" points="14 9 14 13.5 5 18 14 22.5 14 27 67 27 67 9 14 9"/><line class="cls-2" x1="18" y1="14" x2="63" y2="14"/><line class="cls-2" x1="18" y1="18" x2="49" y2="18"/><line class="cls-2" x1="18" y1="22" x2="57" y2="22"/><polygon class="cls-1" points="18 31 18 35.5 9 40 18 44.5 18 49 71 49 71 31 18 31"/><line class="cls-2" x1="22" y1="36" x2="67" y2="36"/><line class="cls-2" x1="22" y1="40" x2="53" y2="40"/><line class="cls-2" x1="22" y1="44" x2="61" y2="44"/><polygon class="cls-1" points="22 53 22 57.5 13 62 22 66.5 22 71 75 71 75 53 22 53"/><line class="cls-2" x1="26" y1="58" x2="71" y2="58"/><line class="cls-2" x1="26" y1="62" x2="57" y2="62"/><line class="cls-2" x1="26" y1="66" x2="65" y2="66"/></svg>