<svg id="Logo" xmlns="http://www.w3.org/2000/svg" viewBox="0 0 196.12 44.37"><defs><style>.cls-1{fill:#fff;}.cls-2{fill:none;stroke:#fff;stroke-miterlimit:10;stroke-width:0.34px;}</style></defs><title>smevirtual_logo_white</title><path class="cls-1" d="M.1,35.88,1.27,34.4a7.64,7.64,0,0,0,5.92,2.7c3.08,0,4.89-1.6,4.89-3.72,0-5-11.56-2.2-11.56-8.76,0-2.81,2.39-5.08,6.52-5.08a8.42,8.42,0,0,1,6.56,2.69l-1.1,1.4A6.67,6.67,0,0,0,7,21.2c-2.84,0-4.59,1.45-4.59,3.34C2.45,29.13,14,26.32,14,33.38c0,3-2.28,5.38-6.87,5.38A8.87,8.87,0,0,1,.1,35.88Zm59.28-6.1v-.54c0-5.27-3.07-9.7-8.65-9.7-5.08,0-8.84,4.28-8.84,9.59,0,5.65,3.83,9.63,9.18,9.63a9.46,9.46,0,0,0,7.17-2.95l-1-1.29a8.06,8.06,0,0,1-6,2.54c-4.21,0-6.84-3.15-7.14-7a12.49,12.49,0,0,1,0-1.84h0c.15-3.18,2.31-7,6.63-7,4.59,0,6.64,3.87,6.68,7H46l-.16,0a3.09,3.09,0,0,0-1.67,1.53ZM44.21,28.24,18,24.88V22.76h0V20h-2V38.31h2V24.88ZM29,24.28a5.5,5.5,0,0,0-.19-1.3h0A4.59,4.59,0,0,0,24,19.54a8,8,0,0,0-5.24,2.4V23.6a6.77,6.77,0,0,1,4.55-2.28c2.62,0,3.68,1.59,3.68,4.17V38.31h2v-14Zm5.88-4.74A7.61,7.61,0,0,0,29.57,22v1.67a6.68,6.68,0,0,1,4.63-2.3c2.57,0,3.68,1.59,3.68,4.17V38.31h2V25.11C39.85,21.43,38.22,19.54,34.84,19.54Z"/><path class="cls-1" d="M80.88,16.21c0,1.44-.91,2.63-3.08,4.12S67.6,24.9,63,26c0,0-3-4.33.77-5.87.94-.38,5-1.69,6.74-2.56,0,0,2.89-1.15,1.88-3.37A8.58,8.58,0,0,0,69,10.75a5.6,5.6,0,0,0,.57-.53A2.59,2.59,0,0,0,70,9.47a52,52,0,0,1,6.75,2.39C78.47,12.58,80.83,13.94,80.88,16.21Z"/><path class="cls-1" d="M70.1,5.89A4.42,4.42,0,0,1,70,9.47,42.76,42.76,0,0,0,63.31,8.1,37,37,0,0,1,69,10.75c-.88.69-1.89,1-4.1,1.44-2.7.58-6.13,1.3-6.83,2.22-1,1.25,0,2.16.86,3S62,19.9,62,19.9c-4.14-1.31-9.62-3.29-10-6.12-.38-3.13,3.52-4.9,5.29-5.58C62.83,6.08,70.1,5.89,70.1,5.89Z"/><path class="cls-1" d="M73.44,25.64a1.08,1.08,0,1,1,1.08-1.08A1.07,1.07,0,0,1,73.44,25.64Zm0-2a.92.92,0,0,0,0,1.83.92.92,0,1,0,0-1.83Zm.3,1.53-.32-.48h-.21v.48H73V24h.51a.39.39,0,0,1,.4.37.37.37,0,0,1-.32.37l.33.49Zm-.2-1.08h-.33v.44h.33a.22.22,0,0,0,0-.44Z"/><line class="cls-2" x1="90.67" x2="90.67" y2="44.37"/><path class="cls-1" d="M113.93,21.62h3.9L111.2,38h-3.35l-6.67-16.35h4l4.37,11.92Z"/><path class="cls-1" d="M121.06,19.13V15.6h4v3.53Zm.15,18.71V21.62H125V37.84Z"/><path class="cls-1" d="M133.53,37.84h-3.74V21.62h3.74v3.66a7.11,7.11,0,0,1,2.19-3,5.21,5.21,0,0,1,3.56-1v3.94h-.21a6,6,0,0,0-2.25.4,4.66,4.66,0,0,0-1.75,1.19,5.58,5.58,0,0,0-1.14,2,9.16,9.16,0,0,0-.4,2.81Z"/><path class="cls-1" d="M147,32.77a2,2,0,0,0,.53,1.55,2.07,2.07,0,0,0,1.47.48,5,5,0,0,0,2.3-.55v3a6.59,6.59,0,0,1-1.5.62,7.28,7.28,0,0,1-1.84.21,6.7,6.7,0,0,1-1.89-.25,3.74,3.74,0,0,1-1.5-.8,3.58,3.58,0,0,1-1-1.46,6.68,6.68,0,0,1-.34-2.26V24.79h-2.05V21.62h2.05V17.17H147v4.45h4.37v3.17H147Z"/><path class="cls-1" d="M165.7,21.62h3.75V37.84H165.7V35.3a8,8,0,0,1-2,2,5.1,5.1,0,0,1-3.06.85,5.39,5.39,0,0,1-4.26-1.69,6.59,6.59,0,0,1-1.5-4.55V21.62h3.75v9.2a4.29,4.29,0,0,0,.9,2.92,3.17,3.17,0,0,0,2.54,1,3.43,3.43,0,0,0,2.62-1.06,4.1,4.1,0,0,0,1-2.95Z"/><path class="cls-1" d="M184.05,37.84v-2a7,7,0,0,1-2.12,1.66,6.71,6.71,0,0,1-3.14.67,7.67,7.67,0,0,1-2.21-.32,5.69,5.69,0,0,1-1.83-1A4.61,4.61,0,0,1,173,33.17v-.06a5,5,0,0,1,.49-2.3,4.42,4.42,0,0,1,1.37-1.63,6.2,6.2,0,0,1,2.09-1,10.33,10.33,0,0,1,2.62-.32,14.87,14.87,0,0,1,2.51.18,17.89,17.89,0,0,1,2,.49v-.39a3.24,3.24,0,0,0-1-2.59,4.42,4.42,0,0,0-3-.89,10,10,0,0,0-2.46.28,15.27,15.27,0,0,0-2.19.74l-1-3a17.25,17.25,0,0,1,2.77-1,13.88,13.88,0,0,1,3.41-.37c2.41,0,4.21.6,5.37,1.8a7,7,0,0,1,1.76,5.06v9.61Zm.09-6.88a9.69,9.69,0,0,0-1.67-.46,11.25,11.25,0,0,0-2.05-.18,4.77,4.77,0,0,0-2.73.67,2.21,2.21,0,0,0-1,1.94V33a2,2,0,0,0,.91,1.78,3.9,3.9,0,0,0,2.23.62,5.77,5.77,0,0,0,1.7-.25,4.2,4.2,0,0,0,1.37-.69,3.25,3.25,0,0,0,.91-1.08,3.07,3.07,0,0,0,.32-1.4Z"/><path class="cls-1" d="M192.37,37.84V15.41h3.75V37.84Z"/></svg>