<svg xmlns="http://www.w3.org/2000/svg" xmlns:xlink="http://www.w3.org/1999/xlink" viewBox="0 0 480 120"><defs><style>.cls-1,.cls-6{fill:none;}.cls-2{clip-path:url(#clip-path);}.cls-3{clip-path:url(#clip-path-2);}.cls-4{fill:#fff;}.cls-5{clip-path:url(#clip-path-3);}.cls-6{stroke:#fff;stroke-miterlimit:10;}.cls-7{clip-path:url(#clip-path-5);}.cls-8{fill:#eaeaea;}.cls-9{fill:#f3f3f3;}.cls-10{clip-path:url(#clip-path-6);}.cls-11{fill:#3151b7;}</style><clipPath id="clip-path"><rect class="cls-1" x="1.71" y="6.25" width="475" height="107.5"/></clipPath><clipPath id="clip-path-2"><rect class="cls-1" x="1.71" y="6.75" width="475" height="107.5"/></clipPath><clipPath id="clip-path-3"><rect class="cls-1" x="127.71" y="20.75" width="70" height="48.5"/></clipPath><clipPath id="clip-path-5"><rect class="cls-1" y="-551" width="1280" height="384"/></clipPath><clipPath id="clip-path-6"><rect class="cls-1" y="-148" width="4000" height="128"/></clipPath></defs><title>logo--15x--dark</title><g id="Dark_15x_Logo" data-name="Dark 15x Logo"><g id="logo"><g class="cls-2"><g class="cls-3"><path class="cls-4" d="M2,93.43,4.8,89.85a18.5,18.5,0,0,0,14.33,6.52c7.45,0,11.85-3.87,11.85-9C31,75.24,3,82,3,66.14c0-6.8,5.78-12.31,15.8-12.31,7.62,0,12.67,2.94,15.89,6.53L32,63.75c-2.57-3.49-7.34-5.88-13.22-5.88-6.89,0-11.12,3.5-11.12,8.09,0,11.11,28,4.32,28,21.4,0,7.17-5.51,13-16.63,13-7.16,0-12.67-2.11-17.09-7M145.71,78.75v-1.4c-.18-12.77-7.62-23.52-21.12-23.52-12.31,0-21.41,10.39-21.41,23.24,0,13.69,9.28,23.33,22.23,23.33a22.85,22.85,0,0,0,17.36-7.16l-2.48-3.12a19.5,19.5,0,0,1-14.51,6.15c-10.22,0-16.59-7.61-17.32-16.94a33.05,33.05,0,0,1,0-4.58h0C108.78,67.15,114,58,124.5,58c11.11,0,16.07,9.36,16.16,16.78H113.23a.59.59,0,0,1-.39.2c-1.62.32-3.35,2.32-4.06,3.8Zm-100-12.13V61.47h0V54.75h-5v44.5h5Zm26-1.31a30.2,30.2,0,0,0,0-3.12v0C70.6,57.87,66.9,53.81,60,53.81c-5.13,0-10,3.13-12.76,5.86v4c2.89-3.11,7.19-5.53,11.06-5.53,6.36,0,8.94,3.85,8.94,10.1V99.25h4.5V65.31ZM86,53.83a18.44,18.44,0,0,0-12.78,5.86v4C76,60.6,80.4,58.18,84.36,58.18c6.2,0,8.85,3.83,8.85,10.05v31h5V67.33c0-8.9-3.95-13.5-12.12-13.5"/><g class="cls-5"><g class="cls-5"><path class="cls-4" d="M197.59,45.78c.08,3.49-2.2,6.36-7.44,10s-24.72,11.07-35.8,13.76c0,0-7.34-10.49,1.87-14.22,2.27-.92,12.13-4.08,16.32-6.18,0,0,7-2.8,4.55-8.16-1.55-3.39-4.71-6.14-8.38-8.4a14.71,14.71,0,0,0,1.39-1.28,7.68,7.68,0,0,0,1.26-1.8,127.06,127.06,0,0,1,16.34,5.76c4.07,1.77,9.78,5.06,9.89,10.55"/><path class="cls-4" d="M171.49,20.78a10.73,10.73,0,0,1-.13,8.69,104.65,104.65,0,0,0-16.3-3.33,90,90,0,0,1,13.65,6.41c-2.13,1.68-4.58,2.36-9.93,3.51-6.53,1.39-14.84,3.13-16.55,5.35-2.33,3,.11,5.24,2.1,7.22s7.46,6.08,7.46,6.08c-10-3.16-23.29-8-24.13-14.82-.93-7.57,8.51-11.87,12.82-13.52,13.41-5.13,31-5.59,31-5.59"/></g></g><path class="cls-4" d="M179.59,68.62A2.61,2.61,0,1,1,182.2,66a2.61,2.61,0,0,1-2.61,2.61m0-4.82a2.22,2.22,0,0,0,0,4.43,2.22,2.22,0,1,0,0-4.43m.72,3.45-.78-1h-.32v1h-.5v-2.5h1.11a.67.67,0,0,1,1,.68.87.87,0,0,1-.76.89l.8.93Zm-.1-2.5h-1v1H180a.5.5,0,1,0,0-1"/><line class="cls-6" x1="221.21" y1="6.75" x2="221.21" y2="113.75"/><polygon class="cls-4" points="277.63 58.75 287.05 58.75 271.02 98.25 262.93 98.25 246.81 58.75 256.46 58.75 267.01 87.56 277.63 58.75"/><path class="cls-4" d="M295.21,44.25h9.5v8.5h-9.5Zm0,14.5h9v39.5h-9Z"/><path class="cls-4" d="M325.21,98.25h-9V58.75h9v9.08a17.33,17.33,0,0,1,5.32-7.15,12.81,12.81,0,0,1,8.68-2.45v9.52h-.52a14.7,14.7,0,0,0-5.46,1,11.38,11.38,0,0,0-4.27,2.9,13.06,13.06,0,0,0-2.77,4.87,21.63,21.63,0,0,0-1,6.81Z"/><path class="cls-4" d="M357.71,85.58A4.88,4.88,0,0,0,359,89.35a5.18,5.18,0,0,0,3.6,1.16,12.52,12.52,0,0,0,5.62-1.34v7.67a15.92,15.92,0,0,1-3.64,1.49,17.59,17.59,0,0,1-4.47.52,16.54,16.54,0,0,1-4.56-.6,9.46,9.46,0,0,1-3.64-1.94,8.72,8.72,0,0,1-2.36-3.54,15.78,15.78,0,0,1-.83-5.49v-21h-5v-7.5h5v-11h9v11h10.5v7.5h-10.5Z"/><path class="cls-4" d="M403.21,58.75h9v39.5h-9.5v-6.2a19.36,19.36,0,0,1-4.78,5,12.31,12.31,0,0,1-7.37,2.07q-6.63,0-10.24-4.11t-3.61-11.07V58.75h9.5V81q0,4.61,2.16,7.09a7.68,7.68,0,0,0,6.12,2.49A8.29,8.29,0,0,0,400.8,88a10,10,0,0,0,2.41-7.16Z"/><path class="cls-4" d="M447.21,98.25V93.41a16.5,16.5,0,0,1-5.09,4,16,16,0,0,1-7.53,1.64,17.76,17.76,0,0,1-5.31-.78,13,13,0,0,1-4.4-2.31,11.28,11.28,0,0,1-4.17-9v-.18a12.31,12.31,0,0,1,1.21-5.62,10.88,10.88,0,0,1,3.33-4,15.19,15.19,0,0,1,5.1-2.37,25.19,25.19,0,0,1,6.41-.78,36.53,36.53,0,0,1,6.12.44,35.16,35.16,0,0,1,4.83,1.21v-.86a7.75,7.75,0,0,0-2.53-6.25q-2.54-2.16-7.3-2.16a24.66,24.66,0,0,0-6.05.67,39.57,39.57,0,0,0-5.36,1.78L424,61.64a42,42,0,0,1,6.81-2.39,34.35,34.35,0,0,1,8.39-.89q8.93,0,13.23,4.36T456.71,75V98.25Zm.5-16.74a22.9,22.9,0,0,0-4-1.12,26.15,26.15,0,0,0-4.94-.45,11.55,11.55,0,0,0-6.62,1.64,5.35,5.35,0,0,0-2.39,4.69v.15a4.9,4.9,0,0,0,2.2,4.31,9.39,9.39,0,0,0,5.39,1.49,13.6,13.6,0,0,0,4.13-.6A10.41,10.41,0,0,0,444.74,90a7.68,7.68,0,0,0,2.19-2.6,7.23,7.23,0,0,0,.78-3.39Z"/><rect class="cls-4" x="467.71" y="43.75" width="9" height="54.5"/></g></g></g></g><g id="Reddit_Mobile_Header_Image" data-name="Reddit Mobile Header Image"><g class="cls-7"><polygon id="slice" class="cls-8" points="0 -551 1000 -551 0 449 0 -551"/><polygon id="slice-2" data-name="slice" class="cls-9" points="0 -551 800 -551 0 249 0 -551"/></g></g><g id="Reddit_Banner_Image" data-name="Reddit Banner Image"><g class="cls-10"><polyline id="slice-3" data-name="slice" class="cls-11" points="0 -147 1440 -147 0 1293 0 -147"/></g></g></svg>