<svg xmlns="http://www.w3.org/2000/svg" viewBox="0 0 128 128"><defs><style>.cls-1{fill:none;stroke:#000;stroke-miterlimit:10;stroke-width:2px;}.cls-2{fill:#949394;}</style></defs><title>open-source-projects--light</title><g id="Light_-_Open_Source_Projects" data-name="Light - Open Source Projects"><g id="Browser"><polyline class="cls-1" points="1 77 1 127 84 127 84 97"/><polyline class="cls-1" points="24 76 1 76 1 63 24 63"/><polygon class="cls-2" points="22 80 6 80 6 103 27 103 27 96 22 96 22 80"/><line class="cls-1" x1="6" y1="107" x2="18" y2="107"/><line class="cls-1" x1="20" y1="107" x2="27" y2="107"/><line class="cls-1" x1="6" y1="107" x2="18" y2="107"/><line class="cls-1" x1="20" y1="107" x2="27" y2="107"/><line class="cls-1" x1="6" y1="111" x2="23" y2="111"/><line class="cls-1" x1="32" y1="97" x2="32" y2="126"/><line class="cls-1" x1="41" y1="104" x2="62" y2="104"/><line class="cls-1" x1="65" y1="104" x2="81" y2="104"/><circle cx="15" cy="69" r="2"/><circle cx="8" cy="69" r="2"/><line class="cls-1" x1="6" y1="115" x2="25" y2="115"/><line class="cls-1" x1="41" y1="113" x2="55" y2="113"/><line class="cls-1" x1="41" y1="109" x2="50" y2="109"/><polygon points="38.24 110.9 37 110.25 35.77 110.9 36 109.53 35 108.55 36.38 108.35 37 107.1 37.62 108.35 39 108.55 38 109.52 38.24 110.9"/><line class="cls-1" x1="58" y1="113" x2="65" y2="113"/><line class="cls-1" x1="68" y1="113" x2="81" y2="113"/><line class="cls-1" x1="41" y1="122" x2="68" y2="122"/><line class="cls-1" x1="41" y1="118" x2="50" y2="118"/><polygon points="38.24 119.9 37 119.25 35.77 119.9 36 118.53 35 117.55 36.38 117.35 37 116.1 37.62 117.35 39 117.55 38 118.52 38.24 119.9"/><line class="cls-1" x1="71" y1="122" x2="81" y2="122"/></g><g id="Editor"><polyline class="cls-1" points="23 47 23 97 106 97 106 66"/><polyline class="cls-1" points="45 46 23 46 23 33 45 33"/><circle cx="37" cy="39" r="2"/><circle cx="30" cy="39" r="2"/><polyline class="cls-1" points="23 47 23 97 49 97 49 66"/><rect class="cls-1" x="49" y="83" width="57" height="14"/><line class="cls-1" x1="61" y1="70" x2="94" y2="70"/><line class="cls-1" x1="52" y1="88" x2="83" y2="88"/><line class="cls-1" x1="52" y1="92" x2="91" y2="92"/><line class="cls-1" x1="33" y1="50" x2="44" y2="50"/><line class="cls-1" x1="27" y1="50" x2="31" y2="50"/><line class="cls-1" x1="52" y1="70" x2="58" y2="70"/><line class="cls-1" x1="68" y1="74" x2="88" y2="74"/><line class="cls-1" x1="91" y1="74" x2="97" y2="74"/><line class="cls-1" x1="52" y1="74" x2="58" y2="74"/><line class="cls-1" x1="68" y1="78" x2="78" y2="78"/><line class="cls-1" x1="80" y1="78" x2="86" y2="78"/><line class="cls-1" x1="52" y1="78" x2="58" y2="78"/><line class="cls-1" x1="88" y1="78" x2="99" y2="78"/><line class="cls-1" x1="86" y1="88" x2="96" y2="88"/><line class="cls-1" x1="33" y1="55" x2="44" y2="55"/><line class="cls-1" x1="27" y1="55" x2="31" y2="55"/><line class="cls-1" x1="33" y1="60" x2="44" y2="60"/><line class="cls-1" x1="27" y1="60" x2="31" y2="60"/></g><g id="CAD"><rect class="cls-1" x="44" y="14" width="83" height="51"/><rect class="cls-1" x="44" y="1" width="83" height="13"/><circle cx="58" cy="7" r="2"/><circle cx="51" cy="7" r="2"/><circle cx="65" cy="7" r="2"/><g id="_3D_Model" data-name="3D Model"><rect class="cls-2" x="67" y="35" width="20" height="20"/><polygon class="cls-2" points="87 34 67 34 77 24 97 24 87 34"/><polygon class="cls-2" points="98 45 88 55 88 35 98 25 98 45"/></g></g></g></svg>