<svg xmlns="http://www.w3.org/2000/svg" viewBox="0 0 128 128"><defs><style>.cls-1,.cls-3{fill:none;stroke-miterlimit:10;stroke-width:2px;}.cls-1{stroke:#000;}.cls-2{fill:#949394;}.cls-3{stroke:#fff;}</style></defs><title>open-by-design--light</title><g id="Light_-_Open_By_Design" data-name="Light - Open By Design"><g id="Open_Door" data-name="Open Door"><line class="cls-1" x1="61" y1="106" x2="61" y2="80"/><polyline class="cls-1" points="85 36 97 36 97 111 79 111"/><path class="cls-2" d="M99,35.13v75l29,16.74v-75Zm25,45.72-22-12.7v-26l22,12.7Z"/><polygon id="strike-plate" class="cls-3" points="123 100.23 117 96.77 117 81.77 123 85.23 123 100.23"/><line class="cls-1" x1="108" y1="60" x2="122" y2="60"/><line class="cls-1" x1="103" y1="60" x2="106" y2="60"/><line class="cls-1" x1="107" y1="65" x2="120" y2="65"/><line class="cls-1" x1="107" y1="55" x2="115" y2="55"/></g><g id="Open_Sign" data-name="Open Sign"><path class="cls-1" d="M6,29H1V80H84V29H80M76,72H9V37H76Z"/><path class="cls-2" d="M20.84,61.33c-4.08,0-7.16-2.87-7.16-7.84s3.08-7.85,7.16-7.85S28,48.49,28,53.49,24.89,61.33,20.84,61.33Zm0-12.84c-2.35,0-3.88,1.76-3.88,5s1.53,5,3.88,5,3.88-1.76,3.88-5S23.18,48.49,20.84,48.49Z"/><path class="cls-2" d="M30.37,45.84h6c3.47,0,5.48,2.15,5.48,5.18s-2.05,5.15-5.56,5.15H33.6v5H30.37Zm5.43,7.74A2.42,2.42,0,0,0,38.55,51c0-1.52-.9-2.53-2.77-2.53H33.6v5.09Z"/><path class="cls-2" d="M44,45.84h10.3v2.67H47.2v3.64h6.54v2.66H47.2v3.65h7.1v2.67H44Z"/><path class="cls-2" d="M69.62,61.13H66.83l-6.65-9.62h-.11v9.62H56.84V45.84h2.83l6.6,9.62h.13V45.84h3.22Z"/><polyline class="cls-1" points="52.32 9.46 41.5 1.5 8.5 26.5"/><line class="cls-1" x1="12" y1="29" x2="60" y2="29"/><line class="cls-1" x1="73" y1="29" x2="63" y2="29"/><circle class="cls-2" cx="9" cy="29" r="4"/><circle class="cls-2" cx="76" cy="29" r="4"/></g><g id="Feedback_2" data-name="Feedback 2"><polygon class="cls-1" points="16 127 16 106 63 106 71 98 71 106 78 106 78 127 16 127"/><line class="cls-1" x1="52" y1="120" x2="19" y2="120"/><line class="cls-1" x1="67" y1="120" x2="55" y2="120"/><line class="cls-1" x1="43" y1="116" x2="19" y2="116"/><line class="cls-1" x1="31" y1="112" x2="19" y2="112"/><line class="cls-1" x1="49" y1="112" x2="34" y2="112"/><line class="cls-1" x1="72" y1="112" x2="52" y2="112"/><line class="cls-1" x1="72" y1="116" x2="46" y2="116"/></g><g id="Feedback_3" data-name="Feedback 3"><polygon class="cls-1" points="115 3 115 24 68 24 60 32 60 24 53 24 53 3 115 3"/><line class="cls-1" x1="56" y1="8" x2="77" y2="8"/><line class="cls-1" x1="80" y1="8" x2="90" y2="8"/><line class="cls-1" x1="93" y1="8" x2="109" y2="8"/><line class="cls-1" x1="56" y1="12" x2="86" y2="12"/><line class="cls-1" x1="56" y1="16" x2="109" y2="16"/><line class="cls-1" x1="89" y1="12" x2="104" y2="12"/></g></g></svg>