<?xml version="1.0" standalone="no"?>
<!DOCTYPE svg PUBLIC "-//W3C//DTD SVG 20010904//EN"
 "http://www.w3.org/TR/2001/REC-SVG-20010904/DTD/svg10.dtd">
<svg version="1.0" xmlns="http://www.w3.org/2000/svg"
 width="512.000000pt" height="512.000000pt" viewBox="0 0 512.000000 512.000000"
 preserveAspectRatio="xMidYMid meet">
<metadata>
Created by potrace 1.11, written by Peter Selinger 2001-2013
</metadata>
<g transform="translate(0.000000,512.000000) scale(0.100000,-0.100000)"
fill="#000000" stroke="none">
<path d="M0 2560 l0 -2560 2560 0 2560 0 0 2560 0 2560 -2560 0 -2560 0 0
-2560z m5020 0 l0 -2460 -2460 0 -2460 0 0 2460 0 2460 2460 0 2460 0 0 -2460z"/>
<path d="M2947 4024 c-1 -1 -47 -5 -102 -9 -55 -3 -113 -8 -130 -10 -16 -2
-61 -7 -98 -10 -37 -4 -76 -8 -85 -10 -9 -1 -44 -6 -77 -9 -62 -7 -102 -13
-145 -21 -14 -3 -47 -7 -75 -11 -27 -3 -108 -17 -180 -31 -168 -32 -165 -31
-244 -49 -36 -9 -76 -18 -89 -20 -43 -8 -358 -103 -422 -127 -222 -83 -339
-141 -485 -238 -249 -167 -370 -365 -352 -577 7 -84 28 -140 83 -218 42 -60
133 -150 183 -182 15 -9 28 -19 31 -23 13 -15 215 -131 305 -173 135 -64 330
-144 500 -204 149 -53 329 -112 341 -112 3 0 -20 20 -52 45 -107 83 -128 99
-216 173 -172 142 -300 281 -333 360 -51 121 21 244 185 314 74 32 250 92 303
103 10 2 27 7 37 10 10 3 27 7 37 10 10 2 68 15 128 29 96 22 355 78 425 92
185 37 357 93 446 145 80 47 67 51 216 -61 174 -131 313 -296 359 -426 53
-150 -8 -287 -177 -399 -96 -64 -343 -168 -694 -292 -85 -30 -218 -77 -294
-104 -159 -56 -207 -82 -270 -144 -75 -73 -106 -152 -107 -271 0 -38 2 -80 5
-94 22 -101 30 -132 38 -136 4 -3 8 -12 8 -20 0 -15 59 -138 95 -200 l18 -30
86 24 c47 12 97 25 111 28 30 6 123 35 370 115 541 174 1179 431 1464 589 229
127 434 308 515 452 51 93 65 224 36 333 -49 182 -212 346 -470 473 -231 113
-568 242 -880 336 -66 20 -137 42 -157 48 -21 6 -38 12 -38 13 0 1 9 28 20 60
21 61 39 182 34 225 -1 14 -5 46 -8 72 -3 26 -13 75 -22 108 l-17 61 -79 -3
c-43 -1 -80 -3 -81 -4z m-682 -340 c28 -4 57 -8 65 -9 22 -3 83 -14 195 -36
55 -10 111 -21 124 -24 89 -17 422 -103 430 -110 7 -8 -48 -84 -94 -131 -47
-47 -67 -51 -105 -19 -43 36 -395 204 -620 295 -89 36 -113 49 -85 46 22 -3
63 -9 90 -12z"/>
</g>
</svg>
