<svg xmlns="http://www.w3.org/2000/svg" viewBox="0 0 128 128"><defs><style>.cls-1,.cls-10,.cls-11,.cls-3,.cls-4,.cls-5,.cls-6,.cls-7,.cls-8,.cls-9{fill:none;stroke-miterlimit:10;}.cls-1,.cls-10,.cls-3,.cls-4,.cls-5,.cls-6,.cls-7,.cls-9{stroke:#000;}.cls-1{stroke-width:1.94px;}.cls-2{fill:#949394;}.cls-3{stroke-width:1.99px;}.cls-4{stroke-width:1.99px;}.cls-11,.cls-5,.cls-8{stroke-width:2px;}.cls-6{stroke-width:2.05px;}.cls-7{stroke-width:2.02px;}.cls-8{stroke:#fff;}.cls-9{stroke-width:1.98px;}.cls-10{stroke-width:2.1px;}.cls-11{stroke:#949394;}</style></defs><title>virtual-tours--light</title><g id="Light_-_Virtual_Tours" data-name="Light - Virtual Tours"><g id="Warehouse"><rect class="cls-1" x="89" y="101" width="38" height="26"/><rect class="cls-2" x="89" y="105" width="7" height="4"/><rect class="cls-2" x="117" y="105" width="7" height="4"/><rect class="cls-2" x="107" y="105" width="9" height="4"/><rect class="cls-2" x="97" y="105" width="9" height="4"/><rect class="cls-2" x="89" y="110" width="7" height="4"/><rect class="cls-2" x="117" y="110" width="7" height="4"/><rect class="cls-2" x="107" y="110" width="9" height="4"/><rect class="cls-2" x="97" y="110" width="9" height="4"/></g><g id="Video_Full_Screen" data-name="Video Full Screen"><polyline class="cls-3" points="89 94 127 94 127 45 45 45 45 78"/><polyline class="cls-4" points="47 32 127 32 127 45 45 45 45 38"/><circle cx="59" cy="38" r="2"/><circle cx="52" cy="38" r="2"/><circle cx="66" cy="38" r="2"/><polygon class="cls-2" points="94.11 64.39 83 70.81 83 57.98 94.11 64.39"/></g><g id="VR"><ellipse class="cls-5" cx="28.5" cy="12" rx="20.5" ry="11"/><polyline class="cls-6" points="40 45 40 65 15 65 15 45"/><path class="cls-7" d="M27.5,52s-18-4.18-20-23h40C45.5,47.82,27.5,52,27.5,52Z"/><line class="cls-5" x1="22" y1="41" x2="33" y2="41"/><rect class="cls-2" x="4" y="10" width="48" height="20"/><line class="cls-8" x1="9" y1="16" x2="9" y2="24"/><line class="cls-8" x1="13" y1="20" x2="48" y2="20"/></g><g id="Factory"><polygon class="cls-9" points="51 72.99 51 78.7 27 72.5 27 79.71 1 72.99 1 127 27 127 39 127 51 127 65 127 89 127 89 82.81 51 72.99"/><polyline class="cls-10" points="83 127 83 110 58 110 58 127"/><rect x="61" y="116" width="5" height="3"/><rect x="68" y="116" width="5" height="3"/><rect x="75" y="116" width="5" height="3"/><line class="cls-11" x1="55" y1="89" x2="65" y2="89"/><line class="cls-11" x1="55" y1="93" x2="65" y2="93"/><line class="cls-11" x1="55" y1="97" x2="65" y2="97"/><line class="cls-11" x1="55" y1="101" x2="65" y2="101"/><line class="cls-11" x1="74" y1="89" x2="84" y2="89"/><line class="cls-11" x1="74" y1="93" x2="84" y2="93"/><line class="cls-11" x1="74" y1="97" x2="84" y2="97"/><line class="cls-11" x1="74" y1="101" x2="84" y2="101"/><line class="cls-11" x1="32" y1="89" x2="42" y2="89"/><line class="cls-11" x1="32" y1="93" x2="42" y2="93"/><line class="cls-11" x1="32" y1="97" x2="42" y2="97"/><line class="cls-11" x1="32" y1="101" x2="42" y2="101"/><line class="cls-11" x1="5" y1="89" x2="15" y2="89"/><line class="cls-11" x1="5" y1="93" x2="15" y2="93"/><line class="cls-11" x1="5" y1="97" x2="15" y2="97"/><line class="cls-11" x1="5" y1="101" x2="15" y2="101"/><line class="cls-5" x1="27" y1="79" x2="27" y2="127"/><line class="cls-5" x1="51" y1="79" x2="51" y2="127"/></g></g></svg>