<svg id="Light_-_Workshops" data-name="Light - Workshops" xmlns="http://www.w3.org/2000/svg" viewBox="0 0 128 128"><defs><style>.cls-1{fill:none;}.cls-1,.cls-2{stroke:#000;stroke-miterlimit:10;stroke-width:2px;}.cls-3{fill:#949394;}</style></defs><title>workshops--light</title><g id="Browser"><path d="M126,65v61H2V65H126m2-2H0v65H128V63Z"/><path d="M126,65V75H2V65H126m2-2H0V77H128V63Z"/><circle cx="15" cy="70" r="2"/><circle cx="8" cy="70" r="2"/><circle cx="22" cy="70" r="2"/><rect class="cls-1" x="7" y="83" width="79" height="31"/><line class="cls-2" x1="6" y1="118" x2="45" y2="118"/><line class="cls-2" x1="48" y1="118" x2="61" y2="118"/><line class="cls-1" x1="6" y1="123" x2="54" y2="123"/><polygon class="cls-3" points="52.11 96.97 40 103.96 40 89.97 52.11 96.97"/><line class="cls-1" x1="92" y1="83" x2="107" y2="83"/><line class="cls-1" x1="92" y1="88" x2="119" y2="88"/><line class="cls-1" x1="92" y1="93" x2="112" y2="93"/><line class="cls-1" x1="92" y1="98" x2="100" y2="98"/><line class="cls-1" x1="92" y1="103" x2="107" y2="103"/><line class="cls-1" x1="110" y1="83" x2="123" y2="83"/><line class="cls-1" x1="102" y1="98" x2="107" y2="98"/><line class="cls-1" x1="109" y1="98" x2="122" y2="98"/><line class="cls-1" x1="110" y1="103" x2="122" y2="103"/><rect class="cls-3" x="91" y="108" width="32" height="15"/></g><g id="Topics_Cloud" data-name="Topics Cloud"><path d="M3.38,11.13H1.54V2.41H3.38Z"/><path d="M6.75,11.13H4.9V2.41H6.75Z"/><path d="M8,7.88A3.1,3.1,0,0,1,11.19,4.5a3.1,3.1,0,0,1,3.22,3.38,3.1,3.1,0,0,1-3.22,3.38A3.1,3.1,0,0,1,8,7.88Zm4.59,0c0-1.14-.46-2-1.36-2s-1.39.84-1.39,2,.47,2,1.39,2S12.56,9,12.56,7.87Z"/><path d="M14.82,2.41H22V3.93H19.31v7.2H17.49V3.93H14.82Z"/><path d="M23.17,12.44H21.61L24.42,2H26Z"/><path d="M28.74,11.13H26.9V2.41h1.84Z"/><path d="M30,7.88a3.22,3.22,0,1,1,6.44,0,3.22,3.22,0,1,1-6.44,0Zm4.59,0c0-1.14-.47-2-1.36-2s-1.39.84-1.39,2,.47,2,1.39,2S34.56,9,34.56,7.87Z"/><path d="M36.82,2.41H44V3.93H41.31v7.2H39.49V3.93H36.82Z"/><path d="M1,48.43l2.51-7.29h2L8,48.43H6.38l-.55-1.66H3.21l-.54,1.66Zm4.43-2.87-.9-2.75H4.49L3.6,45.56Z"/><path d="M8.86,43h1.47v1h.06a1.31,1.31,0,0,1,1.31-1,1.37,1.37,0,0,1,.75.2L12,44.34a1.13,1.13,0,0,0-.51-.13,1.08,1.08,0,0,0-1.1,1.13v3.09H8.86Z"/><path d="M16.39,44.1h-1v2.63c0,.42.21.54.51.54a2.73,2.73,0,0,0,.38-.05l.23,1.13a3.68,3.68,0,0,1-.82.14c-1.1,0-1.83-.49-1.82-1.55V44.1H13.1V43h.75v-1.3h1.52V43h1Z"/><path d="M17.34,41.49a.82.82,0,1,1,.82.79A.81.81,0,0,1,17.34,41.49ZM17.4,43h1.51v5.47H17.4Z"/><path d="M23.1,44.1H22v4.33H20.5V44.1h-.77V43h.77v-.39a1.64,1.64,0,0,1,1.79-1.77,4.19,4.19,0,0,1,1.07.15l-.26,1.14a1.67,1.67,0,0,0-.49-.08c-.44,0-.59.22-.59.59V43H23.1Z"/><path d="M24,41.49a.82.82,0,1,1,.82.79A.81.81,0,0,1,24,41.49ZM24,43h1.52v5.47H24Z"/><path d="M26.52,45.72a2.59,2.59,0,0,1,2.68-2.83A2.22,2.22,0,0,1,31.65,45H30.22a1,1,0,0,0-1-.91c-.71,0-1.17.59-1.17,1.63s.46,1.63,1.17,1.63a1,1,0,0,0,1-.91h1.43a2.21,2.21,0,0,1-2.44,2.11A2.58,2.58,0,0,1,26.52,45.72Z"/><path d="M32.56,41.49a.82.82,0,1,1,.82.79A.81.81,0,0,1,32.56,41.49ZM32.62,43h1.51v5.47H32.62Z"/><path d="M35.08,46.9c0-1.22,1-1.58,2.05-1.68s1.32-.14,1.32-.49v0c0-.45-.29-.71-.81-.71a.92.92,0,0,0-1,.63l-1.4-.11a2.18,2.18,0,0,1,2.38-1.63c1.22,0,2.32.55,2.32,1.85v3.69H38.53v-.76h0a1.68,1.68,0,0,1-1.6.86A1.6,1.6,0,0,1,35.08,46.9Zm3.38-.43v-.58a3.44,3.44,0,0,1-1.05.25c-.53.07-.88.28-.88.71s.33.63.8.63A1,1,0,0,0,38.46,46.47Z"/><path d="M42.65,48.43H41.14V41.14h1.51Z"/><path d="M3,57.43H1.41V50.14H3Z"/><path d="M5.7,57.43H4.19V52H5.63v1H5.7a1.64,1.64,0,0,1,1.64-1A1.84,1.84,0,0,1,9.22,54v3.48H7.71V54.22a.94.94,0,0,0-1-1.07,1,1,0,0,0-1,1.12Z"/><path d="M13.31,53.1h-1v2.63c0,.42.21.54.52.54a2.37,2.37,0,0,0,.37-.05l.24,1.13a3.68,3.68,0,0,1-.82.14c-1.1,0-1.83-.49-1.82-1.55V53.1H10V52h.75v-1.3h1.51V52h1Z"/><path d="M14,54.72a2.59,2.59,0,0,1,2.64-2.83,2.48,2.48,0,0,1,2.57,2.78v.41H15.53a1.19,1.19,0,0,0,1.24,1.31,1,1,0,0,0,1.05-.63l1.4.09a2.27,2.27,0,0,1-2.47,1.67A2.55,2.55,0,0,1,14,54.72Zm3.79-.58A1.08,1.08,0,0,0,16.71,53a1.16,1.16,0,0,0-1.18,1.12Z"/><path d="M21.75,57.43H20.23V50.14h1.52Z"/><path d="M24.47,57.43H23V50.14h1.52Z"/><path d="M25.62,50.49a.82.82,0,1,1,.81.79A.8.8,0,0,1,25.62,50.49ZM25.67,52h1.52v5.47H25.67Z"/><path d="M28.36,58.07l1.4-.19a1.11,1.11,0,0,0,1.13.58c.66,0,1.14-.29,1.14-1v-1H32a1.58,1.58,0,0,1-1.55.89c-1.23,0-2.22-.85-2.22-2.67s1-2.79,2.21-2.79a1.62,1.62,0,0,1,1.56,1H32V52h1.5v5.52c0,1.36-1.11,2.07-2.67,2.07S28.54,58.89,28.36,58.07ZM32,54.68c0-1-.41-1.58-1.14-1.58s-1.15.65-1.15,1.58.4,1.53,1.15,1.53S32,55.64,32,54.68Z"/><path d="M34.5,54.72a2.6,2.6,0,0,1,2.65-2.83,2.48,2.48,0,0,1,2.57,2.78v.41H36a1.19,1.19,0,0,0,1.24,1.31,1,1,0,0,0,1-.63l1.4.09a2.28,2.28,0,0,1-2.48,1.67A2.56,2.56,0,0,1,34.5,54.72Zm3.79-.58A1.07,1.07,0,0,0,37.18,53,1.16,1.16,0,0,0,36,54.14Z"/><path d="M42.22,57.43H40.7V52h1.45v1h.06a1.64,1.64,0,0,1,1.64-1A1.85,1.85,0,0,1,45.74,54v3.48H44.22V54.22a.93.93,0,0,0-1-1.07,1,1,0,0,0-1,1.12Z"/><path d="M46.7,54.72a2.59,2.59,0,0,1,2.68-2.83A2.22,2.22,0,0,1,51.83,54H50.4a1,1,0,0,0-1-.91c-.7,0-1.16.59-1.16,1.63s.46,1.63,1.16,1.63a1,1,0,0,0,1-.91h1.43a2.22,2.22,0,0,1-2.44,2.11A2.58,2.58,0,0,1,46.7,54.72Z"/><path d="M52.57,54.72a2.59,2.59,0,0,1,2.65-2.83,2.48,2.48,0,0,1,2.57,2.78v.41H54.07a1.19,1.19,0,0,0,1.24,1.31,1,1,0,0,0,1-.63l1.4.09a2.29,2.29,0,0,1-2.48,1.67A2.56,2.56,0,0,1,52.57,54.72Zm3.79-.58A1.07,1.07,0,0,0,55.25,53a1.15,1.15,0,0,0-1.18,1.12Z"/><path d="M87.31,1.46l2,4.89h.08l2-4.89H93.3V8.74H91.81V4h-.06L89.87,8.7h-1L87,4H86.9V8.74H85.41V1.46Z"/><path d="M94.37,7.21c0-1.21,1-1.58,2-1.68s1.32-.14,1.32-.49V5c0-.45-.29-.71-.81-.71a.92.92,0,0,0-1,.63l-1.4-.11a2.17,2.17,0,0,1,2.38-1.62c1.21,0,2.32.55,2.32,1.85V8.74H97.82V8h0a1.68,1.68,0,0,1-1.6.86A1.6,1.6,0,0,1,94.37,7.21Zm3.38-.42V6.21a3.46,3.46,0,0,1-1,.24c-.53.08-.89.29-.89.71s.34.64.8.64A1,1,0,0,0,97.75,6.79Z"/><path d="M100.21,6a2.58,2.58,0,0,1,2.68-2.82,2.21,2.21,0,0,1,2.44,2.09H103.9a1,1,0,0,0-1-.91c-.7,0-1.17.59-1.17,1.62s.46,1.64,1.17,1.64a1,1,0,0,0,1-.91h1.43a2.21,2.21,0,0,1-2.44,2.11A2.58,2.58,0,0,1,100.21,6Z"/><path d="M107.81,8.74H106.3V1.46h1.47V4.24h.07a1.6,1.6,0,0,1,1.63-1,1.84,1.84,0,0,1,1.89,2.05V8.74h-1.52V5.53a.93.93,0,0,0-1-1.06,1,1,0,0,0-1.06,1.11Z"/><path d="M112.49,1.8a.82.82,0,0,1,1.63,0,.82.82,0,0,1-1.63,0Zm.05,1.48h1.52V8.74h-1.52Z"/><path d="M116.78,8.74h-1.52V3.28h1.45v1h.06a1.66,1.66,0,0,1,1.64-1,1.84,1.84,0,0,1,1.89,2.05V8.74h-1.52V5.53a.93.93,0,0,0-1-1.06,1,1,0,0,0-1,1.11Z"/><path d="M121.26,6a2.58,2.58,0,0,1,2.65-2.82A2.48,2.48,0,0,1,126.48,6V6.4h-3.72A1.19,1.19,0,0,0,124,7.72,1,1,0,0,0,125,7.08l1.4.1A2.27,2.27,0,0,1,124,8.85,2.56,2.56,0,0,1,121.26,6Zm3.79-.57a1.08,1.08,0,0,0-1.12-1.12,1.15,1.15,0,0,0-1.17,1.12Z"/><path d="M88.49,16h.06l1.77-5.53H92l-2.51,7.28h-2L85,10.46h1.71Z"/><path d="M92.8,10.8a.82.82,0,1,1,.82.8A.81.81,0,0,1,92.8,10.8Zm.06,1.48h1.52v5.46H92.86Z"/><path d="M98.74,13.92a.86.86,0,0,0-.91-.64c-.47,0-.84.21-.84.54s.18.44.69.55l1,.2c1.06.22,1.58.69,1.58,1.48,0,1.07-1,1.8-2.43,1.8s-2.34-.65-2.48-1.69l1.49-.08a.88.88,0,0,0,1,.67c.53,0,.88-.23.89-.55s-.22-.45-.7-.54l-1-.19c-1.06-.22-1.58-.74-1.57-1.56,0-1.06.91-1.7,2.31-1.7s2.19.62,2.32,1.63Z"/><path d="M101.14,10.8a.82.82,0,1,1,.82.8A.81.81,0,0,1,101.14,10.8Zm.06,1.48h1.51v5.46H101.2Z"/><path d="M103.7,15a2.69,2.69,0,1,1,5.38,0,2.69,2.69,0,1,1-5.38,0Zm3.84,0c0-.95-.4-1.66-1.15-1.66s-1.15.71-1.15,1.66.39,1.65,1.15,1.65S107.54,16,107.54,15Z"/><path d="M111.57,17.74h-1.51V12.28h1.44v1h.06a1.67,1.67,0,0,1,1.65-1,1.84,1.84,0,0,1,1.88,2v3.48h-1.51V14.53a.94.94,0,0,0-1-1.06,1,1,0,0,0-1,1.11Z"/><path d="M11.41,20.14h2.87a2.31,2.31,0,0,1,2.61,2.38,2.1,2.1,0,0,1-1.28,2.08l1.54,2.83h-1.7l-1.38-2.59H13v2.59H11.41ZM14,23.61c.88,0,1.31-.37,1.31-1.09S14.88,21.4,14,21.4H13v2.21Z"/><path d="M17.63,24.72a2.58,2.58,0,0,1,2.69-2.83A2.58,2.58,0,0,1,23,24.72a2.58,2.58,0,0,1-2.69,2.81A2.58,2.58,0,0,1,17.63,24.72Zm3.84,0c0-1-.39-1.66-1.14-1.66s-1.16.7-1.16,1.66.39,1.65,1.16,1.65S21.47,25.66,21.47,24.71Z"/><path d="M24,20.14h1.51v2.74h0a1.61,1.61,0,0,1,1.55-1c1.2,0,2.21.94,2.21,2.81s-1,2.81-2.21,2.81a1.61,1.61,0,0,1-1.55-1h-.07v.88H24Zm2.63,6.17c.74,0,1.15-.66,1.15-1.61s-.4-1.6-1.15-1.6-1.15.62-1.15,1.6S25.92,26.31,26.65,26.31Z"/><path d="M30.12,24.72a2.69,2.69,0,1,1,5.38,0,2.69,2.69,0,1,1-5.38,0Zm3.84,0c0-1-.39-1.66-1.14-1.66s-1.16.7-1.16,1.66.39,1.65,1.16,1.65S34,25.66,34,24.71Z"/><path d="M39.38,23.1h-1v2.63c0,.42.21.54.51.54a2.73,2.73,0,0,0,.38-.05l.23,1.13a3.68,3.68,0,0,1-.82.14c-1.1,0-1.83-.49-1.82-1.55V23.1h-.75V22h.75v-1.3h1.52V22h1Z"/><path d="M40.33,20.49a.82.82,0,1,1,.82.79A.81.81,0,0,1,40.33,20.49ZM40.39,22H41.9v5.47H40.39Z"/><path d="M42.88,24.72a2.6,2.6,0,0,1,2.69-2.83A2.21,2.21,0,0,1,48,24H46.58a1,1,0,0,0-1-.91c-.7,0-1.17.59-1.17,1.63s.46,1.63,1.17,1.63a1,1,0,0,0,1-.91H48a2.21,2.21,0,0,1-2.44,2.11A2.58,2.58,0,0,1,42.88,24.72Z"/><path d="M52.14,23.61a.86.86,0,0,0-.92-.64c-.47,0-.84.21-.83.54s.18.44.69.55l1,.19c1.06.22,1.57.69,1.58,1.48,0,1.08-1,1.8-2.43,1.8s-2.34-.64-2.48-1.69l1.49-.07a.88.88,0,0,0,1,.67c.53,0,.88-.23.89-.55s-.23-.45-.7-.55l-.95-.19c-1.06-.21-1.58-.74-1.58-1.56,0-1.05.92-1.7,2.32-1.7s2.19.63,2.32,1.63Z"/><path d="M61.41,42.14h2.87a2.47,2.47,0,1,1,0,4.92H63v2.37H61.41ZM64,45.83a1.22,1.22,0,1,0,0-2.43H63v2.43Z"/><path d="M67.86,44h1.47v1h0a1.39,1.39,0,0,1,2.06-.83L71,45.34a1.14,1.14,0,0,0-.52-.13,1.08,1.08,0,0,0-1.09,1.13v3.09H67.86Z"/><path d="M71.67,46.72a2.69,2.69,0,1,1,5.38,0,2.69,2.69,0,1,1-5.38,0Zm3.84,0c0-1-.39-1.66-1.14-1.66s-1.16.7-1.16,1.66.39,1.65,1.16,1.65S75.51,47.66,75.51,46.71Z"/><path d="M78,50.07l1.4-.19a1.12,1.12,0,0,0,1.13.58c.66,0,1.14-.29,1.14-1v-1H81.6a1.6,1.6,0,0,1-1.56.89c-1.23,0-2.22-.85-2.22-2.67s1-2.79,2.22-2.79a1.64,1.64,0,0,1,1.56,1h.05V44h1.51v5.52c0,1.36-1.11,2.07-2.67,2.07S78.17,50.89,78,50.07Zm3.68-3.39c0-1-.41-1.58-1.15-1.58s-1.15.65-1.15,1.58.41,1.53,1.15,1.53S81.67,47.64,81.67,46.68Z"/><path d="M84.36,44h1.47v1h0a1.32,1.32,0,0,1,1.32-1,1.34,1.34,0,0,1,.74.2l-.45,1.25a1.14,1.14,0,0,0-.52-.13,1.09,1.09,0,0,0-1.1,1.13v3.09H84.36Z"/><path d="M88.24,47.9c0-1.22,1-1.58,2.05-1.68s1.32-.14,1.32-.49v0c0-.45-.29-.71-.81-.71a.92.92,0,0,0-1,.63l-1.4-.11a2.18,2.18,0,0,1,2.38-1.63c1.21,0,2.31.55,2.31,1.85v3.69H91.69v-.76h0a1.68,1.68,0,0,1-1.6.86A1.6,1.6,0,0,1,88.24,47.9Zm3.38-.43v-.58a3.44,3.44,0,0,1-1.05.25c-.53.07-.89.28-.89.71s.34.63.8.63A1,1,0,0,0,91.62,47.47Z"/><path d="M94.29,44h1.45v1h.06a1.53,1.53,0,0,1,1.52-1,1.46,1.46,0,0,1,1.49,1h0a1.76,1.76,0,0,1,3.37.82v3.68h-1.51V46.05a.81.81,0,0,0-.85-.91.85.85,0,0,0-.87,1v3.34H97.53V46a.8.8,0,0,0-.83-.88.91.91,0,0,0-.89,1v3.28H94.29Z"/><path d="M103.41,44h1.45v1h.06a1.53,1.53,0,0,1,1.52-1,1.46,1.46,0,0,1,1.49,1h0a1.76,1.76,0,0,1,3.37.82v3.68h-1.51V46.05a.81.81,0,0,0-.85-.91.85.85,0,0,0-.87,1v3.34h-1.47V46a.8.8,0,0,0-.83-.88.91.91,0,0,0-.89,1v3.28h-1.52Z"/><path d="M112.48,42.49a.82.82,0,1,1,.81.79A.8.8,0,0,1,112.48,42.49Zm0,1.47h1.52v5.47h-1.52Z"/><path d="M116.77,49.43h-1.52V44h1.45v1h.06a1.65,1.65,0,0,1,1.64-1A1.85,1.85,0,0,1,120.29,46v3.48h-1.52V46.22a.93.93,0,0,0-1-1.07,1,1,0,0,0-1,1.12Z"/><path d="M121.44,50.07l1.4-.19a1.11,1.11,0,0,0,1.13.58c.66,0,1.14-.29,1.14-1v-1H125a1.58,1.58,0,0,1-1.56.89c-1.23,0-2.21-.85-2.21-2.67s1-2.79,2.21-2.79a1.63,1.63,0,0,1,1.56,1h.06V44h1.5v5.52c0,1.36-1.11,2.07-2.67,2.07S121.62,50.89,121.44,50.07Zm3.67-3.39c0-1-.41-1.58-1.15-1.58s-1.14.65-1.14,1.58.4,1.53,1.14,1.53S125.11,47.64,125.11,46.68Z"/><path d="M66.54,23.71H70a3,3,0,1,1,0,5.89H68.38v2.83H66.54Zm3.09,4.41a1.46,1.46,0,1,0,0-2.91H68.38v2.91Z"/><path d="M74.31,23.71h1.84v7.2h3.74v1.52H74.31Z"/><path d="M86.61,26.76a1.76,1.76,0,0,0-1.88-1.54c-1.35,0-2.24,1-2.24,2.85s.9,2.84,2.23,2.84a1.78,1.78,0,0,0,1.89-1.46h1.86a3.6,3.6,0,0,1-3.78,3.09c-2.34,0-4.07-1.63-4.07-4.47s1.76-4.48,4.07-4.48a3.53,3.53,0,0,1,3.78,3.17Z"/><path d="M90.76,33.74H89.2L92,23.3h1.57Z"/><path d="M94.48,23.71h3.44a3,3,0,1,1,0,5.89H96.33v2.83H94.48Zm3.1,4.41a1.46,1.46,0,1,0,0-2.91H96.33v2.91Z"/><path d="M100.77,32.43l3-8.72h2.38l3,8.72h-2l-.65-2H103.4l-.65,2ZM106.08,29,105,25.7h-.06L103.86,29Z"/><path d="M115.64,26.76a1.76,1.76,0,0,0-1.88-1.54c-1.35,0-2.23,1-2.23,2.85s.89,2.84,2.22,2.84a1.78,1.78,0,0,0,1.89-1.46h1.86a3.6,3.6,0,0,1-3.78,3.09c-2.33,0-4.06-1.63-4.06-4.47s1.76-4.48,4.06-4.48a3.53,3.53,0,0,1,3.78,3.17Z"/><path d="M57.36,9.76a1.75,1.75,0,0,0-1.87-1.54c-1.35,0-2.24,1-2.24,2.85s.9,2.84,2.22,2.84a1.77,1.77,0,0,0,1.89-1.46h1.87a3.6,3.6,0,0,1-3.79,3.09c-2.33,0-4.06-1.63-4.06-4.47s1.76-4.48,4.06-4.48a3.54,3.54,0,0,1,3.79,3.17Z"/><path d="M67.86,15.43h-1.6L62.47,9.94h-.06v5.49H60.56V6.71h1.62l3.76,5.48H66V6.71h1.84Z"/><path d="M75.21,9.76a1.76,1.76,0,0,0-1.88-1.54c-1.35,0-2.23,1-2.23,2.85s.9,2.84,2.22,2.84a1.77,1.77,0,0,0,1.89-1.46h1.87a3.6,3.6,0,0,1-3.79,3.09c-2.33,0-4.06-1.63-4.06-4.47S71,6.59,73.29,6.59a3.54,3.54,0,0,1,3.79,3.17Z"/></g></svg>